<svg width="63" height="88" viewBox="0 0 63 88" fill="inherit" xmlns="http://www.w3.org/2000/svg">
<path fill-rule="evenodd" clip-rule="evenodd" d="M15.5419 24.8238L20.4 23.4989C18.0062 22.1051 13 18.1301 13 10.8239C13 6.83015 13.925 3.94265 14.6125 2.5114C14.8312 2.06765 15.2938 1.8239 15.7875 1.8239C16.4938 1.8239 17.0875 2.3239 17.2937 2.9989C19.2327 9.40927 25.7681 12.0004 29.8107 12.6728C28.6904 19.5506 22.7315 24.8035 15.5419 24.8238ZM21.0516 5.85708C21.0511 5.85644 21.0505 5.85579 21.05 5.85515V5.8614C21.0505 5.85996 21.0511 5.85852 21.0516 5.85708ZM21.0516 5.85708C21.9263 6.9187 22.9882 7.78682 24.1438 8.49265C25.7625 9.48015 27.5 10.1114 29 10.4676V8.4989C27.6125 6.60515 26.625 4.29265 26.5375 1.5739C26.5125 0.867646 26.0687 0.230146 25.3875 0.0488957C24.9125 -0.0761043 24.4 0.0363957 24.075 0.411396C23.2442 1.37338 22.0326 3.19693 21.0516 5.85708Z" fill="black"/>
<path d="M13.0908 73.666V86.21H4.44336V23.9346H11.2109L11.9971 28.8906C12.3844 28.2526 12.8402 27.6032 13.3643 26.9424C13.9111 26.2816 14.5378 25.7005 15.2441 25.1992C15.9733 24.6751 16.7822 24.2536 17.6709 23.9346C18.5824 23.5928 19.5964 23.4219 20.7129 23.4219C21.1914 23.4219 21.7611 23.4674 22.4219 23.5586C23.1055 23.6497 23.8005 23.8776 24.5068 24.2422C25.236 24.6068 25.9538 25.1536 26.6602 25.8828C27.3893 26.5892 28.0273 27.569 28.5742 28.8223C29.1439 30.0755 29.5996 31.6364 29.9414 33.5049C30.306 35.3734 30.4883 37.6406 30.4883 40.3066V54.5596C30.4883 57.2256 30.306 59.4928 29.9414 61.3613C29.5996 63.2298 29.1439 64.7907 28.5742 66.0439C28.0046 67.2972 27.3551 68.2884 26.626 69.0176C25.8968 69.7467 25.1562 70.2936 24.4043 70.6582C23.6523 71.0228 22.9232 71.2507 22.2168 71.3418C21.5104 71.4557 20.8952 71.5127 20.3711 71.5127C18.5482 71.5127 17.0215 71.1595 15.791 70.4531C14.5833 69.7467 13.5921 68.8923 12.8174 67.8896L13.0908 73.666ZM13.0908 61.3955C13.2731 61.8512 13.4896 62.2842 13.7402 62.6943C14.0137 63.1045 14.3213 63.4691 14.6631 63.7881C15.0277 64.1071 15.4264 64.3691 15.8594 64.5742C16.3151 64.7565 16.8392 64.8477 17.4316 64.8477C18.0697 64.8477 18.6507 64.7337 19.1748 64.5059C19.6989 64.2552 20.1546 63.8223 20.542 63.207C20.9294 62.569 21.2256 61.6917 21.4307 60.5752C21.6585 59.4587 21.7725 58.0231 21.7725 56.2686V38.2559C21.7725 36.5013 21.6585 35.0771 21.4307 33.9834C21.2256 32.8669 20.9294 31.9896 20.542 31.3516C20.1774 30.7135 19.7331 30.2806 19.209 30.0527C18.6849 29.8249 18.1038 29.7109 17.4658 29.7109C16.3721 29.7109 15.472 30.0413 14.7656 30.7021C14.082 31.3402 13.5238 32.0921 13.0908 32.958V61.3955ZM36.4355 61.1562C36.4355 60.1309 36.5267 59.1396 36.709 58.1826C36.9141 57.2256 37.1077 56.4622 37.29 55.8926H43.374C43.374 57.6016 43.4538 59.0371 43.6133 60.1992C43.7956 61.3385 44.0804 62.25 44.4678 62.9336C44.8551 63.6172 45.3678 64.1071 46.0059 64.4033C46.6667 64.6995 47.4642 64.8477 48.3984 64.8477C49.6973 64.8477 50.6429 64.4831 51.2354 63.7539C51.8278 63.0247 52.124 62.1816 52.124 61.2246C52.124 60.7233 52.0557 60.2448 51.9189 59.7891C51.7822 59.3333 51.5885 58.8776 51.3379 58.4219C51.0872 57.9434 50.7796 57.4648 50.415 56.9863C50.0505 56.5078 49.6403 55.9837 49.1846 55.4141L42.8613 47.9629C42.041 46.9375 41.2435 45.9007 40.4688 44.8525C39.7168 43.7816 39.0446 42.6878 38.4521 41.5713C37.8825 40.432 37.4154 39.2471 37.0508 38.0166C36.709 36.7861 36.5381 35.4873 36.5381 34.1201C36.5381 32.2972 36.8457 30.7135 37.4609 29.3691C38.099 28.0247 38.9421 26.9082 39.9902 26.0195C41.0612 25.1309 42.2917 24.4701 43.6816 24.0371C45.0716 23.6042 46.5413 23.3877 48.0908 23.3877C49.7998 23.3877 51.3379 23.5928 52.7051 24.0029C54.0723 24.4131 55.2458 25.0283 56.2256 25.8486C57.2054 26.6689 57.9574 27.6943 58.4814 28.9248C59.0055 30.1325 59.2676 31.5452 59.2676 33.1631C59.2676 34.2568 59.165 35.3164 58.96 36.3418C58.7777 37.3672 58.5954 38.2445 58.4131 38.9736H52.4316C52.4089 37.4242 52.3405 36.0684 52.2266 34.9062C52.1126 33.7441 51.8962 32.7871 51.5771 32.0352C51.2809 31.2604 50.8594 30.6794 50.3125 30.292C49.7884 29.9046 49.0934 29.7109 48.2275 29.7109C47.4756 29.7109 46.849 29.8363 46.3477 30.0869C45.8464 30.3148 45.4362 30.6224 45.1172 31.0098C44.821 31.3971 44.6045 31.8301 44.4678 32.3086C44.3538 32.7871 44.2969 33.277 44.2969 33.7783C44.2969 34.8721 44.5589 35.8861 45.083 36.8203C45.6071 37.7546 46.3021 38.7686 47.168 39.8623L54.0723 47.9629C54.5736 48.5781 55.1546 49.3301 55.8154 50.2188C56.4762 51.0846 57.1029 52.0531 57.6953 53.124C58.2878 54.1722 58.7891 55.3229 59.1992 56.5762C59.6094 57.8294 59.8145 59.1396 59.8145 60.5068C59.8145 62.1702 59.5524 63.6855 59.0283 65.0527C58.5042 66.3971 57.7295 67.5479 56.7041 68.5049C55.6787 69.4619 54.4141 70.2025 52.9102 70.7266C51.429 71.2507 49.7314 71.5127 47.8174 71.5127C46.2451 71.5127 44.764 71.3418 43.374 71C41.984 70.6354 40.7764 70.0544 39.751 69.2568C38.7256 68.4365 37.9167 67.3656 37.3242 66.0439C36.7318 64.7223 36.4355 63.0931 36.4355 61.1562Z" fill="black"/>
</svg>
