<svg width="32" height="32" viewBox="0 0 32 32" fill="none" xmlns="http://www.w3.org/2000/svg">
<rect width="32" height="32" rx="5" fill="#1E1E1E"/>
<path d="M10.0933 23.4347C12.0632 23.4347 13.9524 22.6521 15.3453 21.2593C16.7382 19.8664 17.5207 17.9772 17.5207 16.0073C17.5207 14.0375 16.7382 12.1483 15.3453 10.7554C13.9524 9.36252 12.0632 8.58 10.0933 8.58C8.1235 8.58 6.23433 9.36252 4.84143 10.7554C3.44854 12.1483 2.66602 14.0375 2.66602 16.0073C2.66602 17.9772 3.44854 19.8664 4.84143 21.2593C6.23433 22.6521 8.1235 23.4347 10.0933 23.4347ZM22.0187 22.8573C24.0347 22.8573 25.6693 19.7907 25.6693 16.0067C25.6693 12.224 24.0347 9.15734 22.0187 9.15734C20.0027 9.15734 18.368 12.224 18.368 16.0067C18.368 19.7907 20.0027 22.8573 22.0187 22.8573ZM27.896 22.1387C28.6827 22.1387 29.3187 19.392 29.3187 16.0067C29.3187 12.62 28.6814 9.876 27.896 9.876C27.1094 9.876 26.472 12.6213 26.472 16.0067C26.472 19.3933 27.1094 22.1387 27.896 22.1387Z" fill="white"/>
</svg>
